<?xml version="1.0" encoding="UTF-8" standalone="no"?>
<svg
   xmlns:dc="http://purl.org/dc/elements/1.1/"
   xmlns:cc="http://creativecommons.org/ns#"
   xmlns:rdf="http://www.w3.org/1999/02/22-rdf-syntax-ns#"
   xmlns:svg="http://www.w3.org/2000/svg"
   xmlns="http://www.w3.org/2000/svg"
   xmlns:sodipodi="http://sodipodi.sourceforge.net/DTD/sodipodi-0.dtd"
   xmlns:inkscape="http://www.inkscape.org/namespaces/inkscape"
   width="458px"
   height="111px"
   viewBox="0 0 458 111"
   version="1.1"
   id="svg18"
   sodipodi:docname="leetcode-bp.svg"
   inkscape:version="0.92.5 (2060ec1f9f, 2020-04-08)">
  <metadata
     id="metadata22">
    <rdf:RDF>
      <cc:Work
         rdf:about="">
        <dc:format>image/svg+xml</dc:format>
        <dc:type
           rdf:resource="http://purl.org/dc/dcmitype/StillImage" />
        <dc:title></dc:title>
      </cc:Work>
    </rdf:RDF>
  </metadata>
  <sodipodi:namedview
     pagecolor="#ffffff"
     bordercolor="#666666"
     borderopacity="1"
     objecttolerance="10"
     gridtolerance="10"
     guidetolerance="10"
     inkscape:pageopacity="0"
     inkscape:pageshadow="2"
     inkscape:window-width="1920"
     inkscape:window-height="1020"
     id="namedview20"
     showgrid="false"
     inkscape:zoom="1.4142136"
     inkscape:cx="343.8151"
     inkscape:cy="-68.82916"
     inkscape:window-x="0"
     inkscape:window-y="28"
     inkscape:window-maximized="1"
     inkscape:current-layer="layer1" />
  <!-- Generator: Sketch 49.1 (51147) - http://www.bohemiancoding.com/sketch -->
  <desc
     id="desc4">Created with Sketch.</desc>
  <defs
     id="defs6" />
  <g
     inkscape:groupmode="layer"
     id="layer1"
     inkscape:label="Layer 1"
     style="display:inline">
    <path
       style="display:inline;fill:#ffa116;fill-rule:nonzero"
       inkscape:connector-curvature="0"
       id="Combined-Shape"
       d="m 94.68972,83.106243 c 2.493704,-2.490035 6.53031,-2.483532 9.016,0.01453 2.4857,2.498057 2.47921,6.541706 -0.0145,9.031741 L 92.618031,103.20941 C 82.402119,113.41057 65.743352,113.5585 55.355144,103.55303 55.295103,103.49551 50.669469,98.959962 35.409912,83.996848 25.258101,74.042718 24.246737,58.114703 33.799861,47.886193 L 51.61158,28.814375 C 61.09289,18.661688 78.570335,17.552054 89.410877,26.318752 l 16.177303,13.0831 c 2.7396,2.215606 3.16752,6.236474 0.95577,8.980861 -2.21174,2.744387 -6.2256,3.173049 -8.965209,0.957443 L 81.401549,36.257144 C 75.732167,31.672339 65.814797,32.301989 60.92274,37.540456 L 43.110792,56.612519 c -4.650699,4.979492 -4.141345,13.001326 1.218222,18.256529 11.205406,10.98772 19.841279,19.455402 19.851271,19.465006 5.400758,5.201759 14.133463,5.124213 19.436181,-0.170851 z" />
    <g
       style="display:inline;fill:none;fill-rule:evenodd;stroke:none;stroke-width:1"
       id="logo_english_dark"
       transform="translate(-784.81711,-3713.9602)">
      <g
         transform="translate(812,3714)"
         id="Logo_English">
        <g
           id="Group-10">
          <path
             style="fill:#000000"
             d="M 53.855469,0.00390625 C 52.224795,0.05830022 50.614843,0.73560227 49.412109,2.0234375 L 46.244141,5.4160156 56.195312,13.455078 58.722656,10.75 C 61.128122,8.1743298 60.99501,4.1323221 58.423828,1.7226562 57.138237,0.51782368 55.486143,-0.05048772 53.855469,0.00390625 Z m -8.490235,6.35351565 -7.357422,7.8789061 9.951172,8.039063 7.357422,-7.876953 z m -8.236328,8.8203121 -7.357422,7.876954 9.951172,8.039062 7.357422,-7.876953 z m -8.238281,8.81836 -7.357422,7.878906 9.951172,8.039062 7.359375,-7.878906 z m -8.236328,8.820312 -7.357422,7.876953 9.951172,8.039063 7.357422,-7.876953 z m -8.236328,8.81836 -5.8007815,6.210937 c -0.5239283,0.560907 -1.010089,1.14306 -1.4707031,1.736328 l 9.9296876,8.021485 c 0.262955,-0.354961 0.543382,-0.701319 0.851562,-1.03125 l 6.441407,-6.898438 z m -8.0351565,8.982422 c -7.0718302,10.164588 -5.43111,24.244623 3.84375,33.339843 L 27.990234,103.33594 c 2.516128,2.46727 6.552629,2.42481 9.015625,-0.0957 2.462999,-2.52052 2.420424,-6.563951 -0.0957,-9.031246 L 17.146484,74.830078 C 12.49155,70.265302 11.500884,63.615852 14.367188,58.683594 Z"
             id="Stroke-3"
             inkscape:connector-curvature="0" />
        </g>
      </g>
    </g>
    <path
       style="display:inline;fill:#b3b3b3;fill-rule:evenodd;stroke:none;stroke-width:1"
       d="m 110.71218,58.97147 v 13.070312 c 0,0 4.27535,-0.946525 7.91797,-2.417969 v -8.052734 c -3.64267,-1.554876 -7.91797,-2.599609 -7.91797,-2.599609 z m -1.20703,0.0078 -41.714842,0.289063 c -3.520888,0.02442 -6.375,2.859599 -6.375,6.386718 0,3.527119 2.854028,6.386719 6.375,6.386719 h 41.714842 z m -37.572264,2.019543 h 31.375004 c 0.4986,0 0.90039,0.269022 0.90039,0.603516 0,0.334494 -0.40179,0.603516 -0.90039,0.603516 H 71.932886 c -0.4986,0 -0.900391,-0.269022 -0.900391,-0.603516 0,-0.334494 0.401791,-0.603516 0.900391,-0.603516 z m 47.904294,1.121094 v 6.982422 c 2.15432,-0.994994 3.84571,-2.17642 3.84571,-3.447266 0,-1.270856 -1.69136,-2.490848 -3.84571,-3.535156 z m -47.904294,2.878906 h 31.375004 c 0.4986,0 0.90039,0.269022 0.90039,0.603516 0,0.334494 -0.40179,0.603516 -0.90039,0.603516 H 71.932886 c -0.4986,0 -0.900391,-0.269022 -0.900391,-0.603516 0,-0.334494 0.401791,-0.603516 0.900391,-0.603516 z m 0,4 h 31.375004 c 0.4986,0 0.90039,0.269022 0.90039,0.603516 0,0.334494 -0.40179,0.603516 -0.90039,0.603516 H 71.932886 c -0.4986,0 -0.900391,-0.269022 -0.900391,-0.603516 0,-0.334494 0.401791,-0.603516 0.900391,-0.603516 z"
       id="Path-2"
       inkscape:connector-curvature="0" />
    <g
       aria-label="leetcode-bp"
       style="font-style:normal;font-variant:normal;font-weight:normal;font-stretch:normal;font-size:96px;line-height:0;font-family:'Roboto Mono';-inkscape-font-specification:'Roboto Mono';letter-spacing:0px;word-spacing:0px;fill:#000000;fill-opacity:1;stroke:none;stroke-width:1.70456326"
       id="text863"
       transform="translate(27.182886,-0.9999995)">
      <path
         d="m 142.66976,20.497333 c 0,4.416 -2.4,10.176 -7.2,17.28 -4.096,6.016 -9.056,11.84 -14.88,17.472 -3.008,8 -4.512,13.472 -4.512,16.416 0,0.896 0.256,1.728 0.768,2.496 0.576,0.704 1.312,1.056 2.208,1.056 2.048,0 5.216,-1.44 9.504,-4.32 4.288,-2.88 1.69585,-2.176 5.85585,-6.528 l 1.536,4.896 c -2.816,2.752 -0.83185,2.72 -4.60785,5.28 -5.12,3.52 -9.152,5.28 -12.096,5.28 -2.624,0 -4.736,-0.832 -6.336,-2.496 -1.28,-1.408 -1.92,-2.848 -1.92,-4.32 0,-2.88 0.8,-6.688 2.4,-11.424 -1.472,1.408 -3.616,3.52 -6.432,6.336 l -2.592,-4.032 7.968,-7.968 c 2.944,-3.328 4.896,-6.464 5.856,-9.408 1.472,-4.928 3.84,-12.064 7.104,-21.408 3.136,-7.616 6.848,-11.424 11.136,-11.424 1.92,0 3.424,0.672 4.512,2.016 1.152,1.344 1.728,2.944 1.728,4.8 z m -4.8,0.096 c 0,-1.472 -0.704,-2.208 -2.112,-2.208 -3.136,0 -7.168,9.024 -12.096,27.072 3.776,-4.288 7.072,-8.864 9.888,-13.728 2.88,-4.928 4.32,-8.64 4.32,-11.136 z"
         style="font-style:normal;font-variant:normal;font-weight:normal;font-stretch:normal;font-size:96px;line-height:0;font-family:DnealianCursive;-inkscape-font-specification:'DnealianCursive, Normal';font-variant-ligatures:normal;font-variant-caps:normal;font-variant-numeric:normal;font-feature-settings:normal;text-align:start;writing-mode:lr-tb;text-anchor:start;stroke-width:1.70456326"
         id="path915"
         inkscape:connector-curvature="0"
         sodipodi:nodetypes="sccscsscccscsccccccscsssccs" />
      <path
         d="m 161.9656,69.265333 c -10.56,9.984 -11.74399,10.56 -18.33599,10.56 -4.416,0 -8,-1.632 -10.752,-4.896 -2.432,-2.88 -3.648,-6.24 -3.648,-10.08 0,-5.76 1.472,-10.176 4.416,-13.248 2.88,-3.136 6.944,-4.704 12.192,-4.704 1.664,0 3.168,0.576 4.512,1.728 1.408,1.088 2.112,2.4 2.112,3.936 0,3.712 -1.728,6.976 -5.184,9.792 -1.024,0.768 -4.8,3.072 -11.328,6.912 0.512,1.6 1.664,3.008 3.456,4.224 1.6,1.088 3.008,1.632 4.224,1.632 5.76,0 6.55999,-0.704 16.79999,-10.752 z m -14.68799,-15.456 c 0,-1.344 -0.832,-2.016 -2.496,-2.016 -2.752,0 -5.056,0.928 -6.912,2.784 -2.176,2.176 -3.328,5.44 -3.456,9.792 2.56,-1.6 5.152,-3.2 7.776,-4.8 3.392,-2.304 5.088,-4.224 5.088,-5.76 z"
         style="font-style:normal;font-variant:normal;font-weight:normal;font-stretch:normal;font-size:96px;line-height:0;font-family:DnealianCursive;-inkscape-font-specification:'DnealianCursive, Normal';font-variant-ligatures:normal;font-variant-caps:normal;font-variant-numeric:normal;font-feature-settings:normal;text-align:start;writing-mode:lr-tb;text-anchor:start;stroke-width:1.70456326"
         id="path917"
         inkscape:connector-curvature="0"
         sodipodi:nodetypes="cscscscscccsccsssccs" />
      <path
         d="m 187.9176,67.921333 c -3.15707,2.984865 -4.76961,5.349919 -6.63766,7.057441 -4.38033,4.003924 -7.21266,4.747039 -11.83388,4.747039 -4.416,0 -8,-1.632 -10.752,-4.896 -2.432,-2.88 -3.44846,-6.14048 -3.44846,-9.98048 0,-5.76 1.472,-10.176 4.416,-13.248 2.88,-3.136 6.944,-4.704 12.192,-4.704 1.664,0 3.168,0.576 4.512,1.728 1.408,1.088 2.112,2.4 2.112,3.936 0,3.712 -1.728,6.976 -5.184,9.792 -1.024,0.768 -4.8,3.072 -11.328,6.912 0.512,1.6 1.664,3.008 3.456,4.224 1.6,1.088 2.80846,1.532481 4.02446,1.532481 3.81053,0 5.86047,-0.317707 9.16692,-3.577628 1.69158,-1.667776 3.6219,-3.904112 6.71262,-7.554853 z m -14.624,-14.112 c 0,-1.344 -0.832,-2.016 -2.496,-2.016 -2.752,0 -5.056,0.928 -6.912,2.784 -2.176,2.176 -3.328,5.44 -3.456,9.792 2.56,-1.6 5.152,-3.2 7.776,-4.8 3.392,-2.304 5.088,-4.224 5.088,-5.76 z"
         style="font-style:normal;font-variant:normal;font-weight:normal;font-stretch:normal;font-size:96px;line-height:0;font-family:DnealianCursive;-inkscape-font-specification:'DnealianCursive, Normal';font-variant-ligatures:normal;font-variant-caps:normal;font-variant-numeric:normal;font-feature-settings:normal;text-align:start;writing-mode:lr-tb;text-anchor:start;stroke-width:1.70456326"
         id="path919"
         inkscape:connector-curvature="0"
         sodipodi:nodetypes="csscscscscccssccsssccs" />
      <path
         d="m 223.8216,66.577333 q -16.32,13.248 -23.904,13.248 -3.552,0 -6.24,-2.4 -2.592,-2.496 -2.592,-5.664 0,-3.168 2.304,-9.504 -1.728,1.92 -5.472,5.664 l -2.592,-4.032 q 5.28,-4.992 8.928,-9.984 1.152,-2.016 3.168,-5.28 h -11.808 l 1.152,-4.704 h 12.96 l 9.696,-28.992 h 5.376 l -9.6,28.992 h 11.328 l -1.632,4.704 h -11.424 q -1.632,4.608 -5.184,14.592 -2.112,6.048 -2.112,8.16 0,1.248 1.44,2.496 1.44,1.152 2.496,1.152 3.264,0 10.944,-4.992 7.2,-4.704 12.768,-9.984 z"
         style="font-style:normal;font-variant:normal;font-weight:normal;font-stretch:normal;font-size:96px;line-height:0;font-family:DnealianCursive;-inkscape-font-specification:'DnealianCursive, Normal';font-variant-ligatures:normal;font-variant-caps:normal;font-variant-numeric:normal;font-feature-settings:normal;text-align:start;writing-mode:lr-tb;text-anchor:start;stroke-width:1.70456326"
         id="path921"
         inkscape:connector-curvature="0" />
      <path
         d="m 253.00552,75.601333 c -6.08856,2.797446 -12,4.224 -17.76,4.224 -3.968,0 -7.296,-0.96 -9.984,-2.88 -3.008,-2.24 -4.512,-5.312 -4.512,-9.216 0,-5.76 1.856,-10.688 5.568,-14.784 3.776,-4.096 8.192,-6.144 13.248,-6.144 1.984,0 3.808,0.8 5.472,2.4 1.664,1.6 2.784,3.808 3.36,6.624 l -4.416,0.768 c -0.32,-1.408 -0.96,-2.592 -1.92,-3.552 -0.896,-1.024 -1.856,-1.536 -2.88,-1.536 -3.84,0 -7.136,1.696 -9.888,5.088 -2.56,3.136 -3.84,6.752 -3.84,10.848 0,2.112 1.056,3.936 3.168,5.472 2.176,1.472 4.576,2.208 7.2,2.208 4.864,0 10.15045,-1.362688 15.84,-4.128 5.76648,-2.802703 7.0955,1.965419 1.344,4.608 z"
         style="font-style:normal;font-variant:normal;font-weight:normal;font-stretch:normal;font-size:96px;line-height:0;font-family:DnealianCursive;-inkscape-font-specification:'DnealianCursive, Normal';font-variant-ligatures:normal;font-variant-caps:normal;font-variant-numeric:normal;font-feature-settings:normal;text-align:start;writing-mode:lr-tb;text-anchor:start;stroke-width:1.70456326"
         id="path923"
         inkscape:connector-curvature="0"
         sodipodi:nodetypes="sscscsscccscscsss" />
      <path
         d="m 280.26941,72.529333 c -2.176,0 -4.064,-0.256 -5.664,-0.768 -3.456,5.376 -7.616,8.064 -12.48,8.064 -3.136,0 -5.71412,-1.104077 -7.68,-3.36 -1.93825,-2.224225 -2.88,-5.056 -2.88,-8.448 0,-5.184 1.44,-9.856 4.32,-14.016 3.2,-4.736 7.264,-7.104 12.192,-7.104 3.456,0 6.176,1.216 8.16,3.648 1.792,2.176 2.72,4.96 2.784,8.352 0.064,2.304 -0.64,5.184 -2.112,8.64 1.152,0.192 2.496,0.288 4.032,0.288 3.136,0 2.976,4.704 -0.672,4.704 z m -5.952,-13.632 c 0,-2.112 -0.576,-3.904 -1.728,-5.376 -0.96,-1.28 -1.92,-1.92 -2.88,-1.92 -0.896,0 -1.472,0.032 -1.728,0.096 -0.192,0.064 -0.288,0.32 -0.288,0.768 0,4.416 0.512,7.584 1.536,9.504 0.704,1.28 1.824,2.528 3.36,3.744 1.152,-3.072 1.728,-5.344 1.728,-6.816 z m -4.32,11.04 c -2.304,-1.28 -4.032,-3.264 -5.184,-5.952 -1.152,-2.752 -1.728,-5.344 -1.728,-7.776 0,-0.96 0.096,-2.016 0.288,-3.168 -1.664,1.28 -3.2,3.232 -4.608,5.856 -1.6,3.008 -2.432,5.952 -2.496,8.832 -0.064,2.048 0.48,3.808 1.632,5.28 1.216,1.472 2.752,2.208 4.608,2.208 2.624,0 5.12,-1.76 7.488,-5.28 z"
         style="font-style:normal;font-variant:normal;font-weight:normal;font-stretch:normal;font-size:96px;line-height:0;font-family:DnealianCursive;-inkscape-font-specification:'DnealianCursive, Normal';font-variant-ligatures:normal;font-variant-caps:normal;font-variant-numeric:normal;font-feature-settings:normal;text-align:start;writing-mode:lr-tb;text-anchor:start;stroke-width:1.70456326"
         id="path925"
         inkscape:connector-curvature="0"
         sodipodi:nodetypes="scssscscccssscscsccsccsccccsc" />
      <path
         d="m 327.56509,69.265333 c -2.56,2.112 -0.76784,2.368 -5.56784,6.144 -3.968,2.944 -7.296,4.416 -9.984,4.416 -2.752,0 -4.704,-0.448 -5.856,-1.344 -1.088,-0.96 -1.92,-2.656 -2.496,-5.088 -3.776,4.288 -7.552,6.432 -11.328,6.432 -3.264,0 -5.952,-1.024 -8.064,-3.072 -2.048,-2.048 -3.072,-4.576 -3.072,-7.584 0,-6.08 3.104,-11.36 9.312,-15.84 5.76,-4.16 12.512,-6.624 20.256,-7.392 l 10.464,-32.16 h 5.184 c -11.648,35.904 -17.472,55.168 -17.472,57.792 0,0.832 0.32,1.632 0.96,2.4 0.64,0.704 1.44,1.056 2.4,1.056 2.688,0 2.59184,-0.672 13.72784,-10.656 z m -18.52784,-18.048 c -6.464,0.768 -11.936,2.976 -16.416,6.624 -4.48,3.584 -6.72,7.296 -6.72,11.136 0,1.536 0.672,2.944 2.016,4.224 1.344,1.28 2.816,1.92 4.416,1.92 2.496,0 5.312,-1.92 8.448,-5.76 2.688,-3.264 4.544,-6.336 5.568,-9.216 0.512,-1.856 1.408,-4.832 2.688,-8.928 z"
         style="font-style:normal;font-variant:normal;font-weight:normal;font-stretch:normal;font-size:96px;line-height:0;font-family:DnealianCursive;-inkscape-font-specification:'DnealianCursive, Normal';font-variant-ligatures:normal;font-variant-caps:normal;font-variant-numeric:normal;font-feature-settings:normal;text-align:start;writing-mode:lr-tb;text-anchor:start;stroke-width:1.70456326"
         id="path927"
         inkscape:connector-curvature="0"
         sodipodi:nodetypes="ccsccscsccccscsccccsssccc" />
      <path
         d="m 349.44765,75.211999 c -0.82875,0.754965 -3.28702,2.382516 -6.40031,3.415913 -2.5617,0.850306 -5.6678,1.197421 -7.80225,1.197421 -4.416,0 -8,-1.632 -10.752,-4.896 -2.432,-2.88 -3.648,-6.24 -3.648,-10.08 0,-5.76 1.472,-10.176 4.416,-13.248 2.88,-3.136 6.944,-4.704 12.192,-4.704 1.664,0 3.168,0.576 4.512,1.728 1.408,1.088 2.112,2.4 2.112,3.936 0,3.712 -1.728,6.976 -5.184,9.792 -1.024,0.768 -4.8,3.072 -11.328,6.912 0.512,1.6 1.664,3.008 3.456,4.224 1.6,1.088 3.008,1.632 4.224,1.632 1.82435,0 4.23878,0.0058 6.57741,-0.403053 2.54376,-0.444737 4.98641,-1.322882 6.18515,-1.74628 z M 338.89309,53.809333 c 0,-1.344 -0.832,-2.016 -2.496,-2.016 -2.752,0 -5.056,0.928 -6.912,2.784 -2.176,2.176 -3.328,5.44 -3.456,9.792 2.56,-1.6 5.152,-3.2 7.776,-4.8 3.392,-2.304 5.088,-4.224 5.088,-5.76 z"
         style="font-style:normal;font-variant:normal;font-weight:normal;font-stretch:normal;font-size:96px;line-height:0;font-family:DnealianCursive;-inkscape-font-specification:'DnealianCursive, Normal';font-variant-ligatures:normal;font-variant-caps:normal;font-variant-numeric:normal;font-feature-settings:normal;text-align:start;writing-mode:lr-tb;text-anchor:start;stroke-width:1.70456326"
         id="path929"
         inkscape:connector-curvature="0"
         sodipodi:nodetypes="csscscscscccssccsssccs" />
      <path
         d="m 376.27422,75.211999 c -1.84889,1.493333 -2.8799,1.493334 -4.7999,1.493334 -1.35111,0 -2.57778,-0.675556 -3.68,-2.026667 -0.56889,-0.746667 -1.31556,-2.026667 -2.24,-3.84 -0.53333,0.995556 -1.65333,2.968889 -3.36,5.92 -2.09778,3.377778 -4.44445,5.066667 -7.04,5.066667 -1.17333,0 -2.11556,-0.515556 -2.82667,-1.546667 -0.64,-0.924445 -0.96,-2.008889 -0.96,-3.253333 0,-0.995556 0.35556,-2.577778 1.06667,-4.746667 -0.49778,0.497778 -1.49334,1.475556 -2.98667,2.933333 l -1.44,-2.239999 c 2.06222,-2.026667 3.25333,-3.217778 3.57333,-3.573334 1.31556,-1.422222 2.36445,-2.755555 3.14667,-4 0.71111,-2.524444 1.44,-5.066666 2.18667,-7.626666 0.74667,-2.56 1.45778,-4.64 2.13333,-6.24 1.70667,-4.195555 3.89333,-6.293333 6.56,-6.293333 1.06667,0 1.90222,0.355555 2.50667,1.066666 0.64,0.675556 0.96,1.564445 0.96,2.666667 0,2.88 -1.15556,5.902222 -3.46667,9.066667 -1.28,1.742222 -2.54222,3.306666 -3.78667,4.693333 -1.03111,1.066667 -2.61333,2.791111 -4.74666,5.173333 -1.88445,3.804445 -2.82667,6.915556 -2.82667,9.333333 0,0.426667 0.16,0.871111 0.48,1.333333 0.32,0.426667 0.62222,0.64 0.90667,0.64 1.67111,0 3.69777,-2.257778 6.08,-6.773333 0.53333,-1.031111 1.77778,-3.697777 3.73333,-8 0.0711,-0.213333 0.16,-0.426667 0.26667,-0.64 0.0355,0.07111 0.10664,0.302223 0.21333,0.693334 2.16889,6.399999 4.16398,9.720047 5.97333,9.599999 1.40197,-0.09302 1.074,0.100096 2.93324,-1.119999 z m -9.9199,-26.026666 c 0,-0.888889 -0.44445,-1.333333 -1.33334,-1.333333 -0.99555,0 -2.20444,1.724444 -3.62666,5.173333 -1.31556,3.128889 -2.25778,6.24 -2.82667,9.333333 2.88,-3.271111 4.58667,-5.279999 5.12,-6.026666 1.77778,-2.524445 2.66667,-4.906667 2.66667,-7.146667 z"
         style="font-size:53.33333206px"
         id="path933"
         inkscape:connector-curvature="0"
         sodipodi:nodetypes="cscccscscccccscscscccscsccccsccsscccs" />
      <path
         d="m 403.63422,74.465333 q -5.33333,4.693333 -10.56,6.346666 -3.73333,1.226667 -9.33333,1.226667 -2.88,0 -4.85334,-2.613333 l -6.50666,19.893333 h -2.82667 l 8.21333,-25.546666 -1.49333,1.439999 -1.44,-2.239999 q 2.29333,-2.453334 2.72,-2.933334 1.22667,-1.44 2.29333,-3.04 0.90667,-1.386666 1.38667,-3.466666 h 2.98667 l -0.26667,1.226666 q 1.17333,-0.853333 2.18667,-1.066666 0.69333,-0.16 2.50666,-0.16 2.4,0 3.94667,2.08 1.54667,2.026666 1.54667,4.8 0,2.133333 -0.85334,4.373333 -1.01333,2.613333 -2.66666,4 3.52,-0.586667 7.30666,-3.04 3.25334,-2.133333 5.70667,-4.906667 z m -12.26667,-3.84 q 0,-1.92 -1.12,-3.2 -1.12,-1.333333 -2.61333,-1.333333 -2.13333,0 -4.58667,3.2 -2.45333,3.2 -2.45333,6.079999 0,1.546667 1.12,2.826667 1.12,1.226667 2.34667,1.226667 2.88,0 5.06666,-2.773334 2.24,-2.773333 2.24,-6.026666 z"
         style="font-size:53.33333206px"
         id="path935"
         inkscape:connector-curvature="0" />
    </g>
  </g>
</svg>
