<?xml version="1.0" encoding="UTF-8"?>
<svg version="1.1" viewBox="0 0 458 111" xmlns="http://www.w3.org/2000/svg">
				<desc>Created with Sketch.</desc>
				<g>
								<path id="Combined-Shape" d="m94.69 83.106c2.4937-2.49 6.5303-2.4835 9.016 0.01453 2.4857 2.4981 2.4792 6.5417-0.0145 9.0317l-11.073 11.057c-10.216 10.201-26.875 10.349-37.263 0.34362-0.060041-0.05752-4.6857-4.5931-19.945-19.556-10.152-9.9541-11.163-25.882-1.6101-36.111l17.812-19.072c9.4813-10.153 26.959-11.262 37.799-2.4956l16.177 13.083c2.7396 2.2156 3.1675 6.2365 0.95577 8.9809-2.2117 2.7444-6.2256 3.173-8.9652 0.95744l-16.177-13.083c-5.6694-4.5848-15.587-3.9552-20.479 1.2833l-17.812 19.072c-4.6507 4.9795-4.1413 13.001 1.2182 18.257 11.205 10.988 19.841 19.455 19.851 19.465 5.4008 5.2018 14.133 5.1242 19.436-0.17085z" fill="#ffa116"/>
								<g id="logo_english_dark" transform="translate(-784.82 -3714)" fill="none" fill-rule="evenodd">
												<g id="Logo_English" transform="translate(812,3714)">
																<path d="m53.855 0.0039062c-1.6307 0.054394-3.2406 0.7317-4.4434 2.0195l-3.168 3.3926 9.9512 8.0391 2.5273-2.7051c2.4055-2.5757 2.2724-6.6177-0.29883-9.0273-1.2856-1.2048-2.9377-1.7731-4.5684-1.7187zm-8.4902 6.3535-7.3574 7.8789 9.9512 8.0391 7.3574-7.877zm-8.2363 8.8203-7.3574 7.877 9.9512 8.0391 7.3574-7.877zm-8.2383 8.8184-7.3574 7.8789 9.9512 8.0391 7.3594-7.8789zm-8.2363 8.8203-7.3574 7.877 9.9512 8.0391 7.3574-7.877zm-8.2363 8.8184-5.8008 6.2109c-0.52393 0.56091-1.0101 1.1431-1.4707 1.7363l9.9297 8.0215c0.26296-0.35496 0.54338-0.70132 0.85156-1.0312l6.4414-6.8984zm-8.0352 8.9824c-7.0718 10.165-5.4311 24.245 3.8438 33.34l19.764 19.379c2.5161 2.4673 6.5526 2.4248 9.0156-0.0957 2.463-2.5205 2.4204-6.564-0.0957-9.0312l-19.764-19.379c-4.6549-4.5648-5.6456-11.214-2.7793-16.146z" fill="#000"/>
												</g>
								</g>
								<path d="m110.71 58.971v13.07s4.2754-0.94652 7.918-2.418v-8.0527c-3.6427-1.5549-7.918-2.5996-7.918-2.5996zm-1.207 0.0078-41.715 0.28906c-3.5209 0.02442-6.375 2.8596-6.375 6.3867s2.854 6.3867 6.375 6.3867h41.715zm-37.572 2.0195h31.375c0.4986 0 0.90039 0.26902 0.90039 0.60352s-0.40179 0.60352-0.90039 0.60352h-31.375c-0.4986 0-0.90039-0.26902-0.90039-0.60352s0.40179-0.60352 0.90039-0.60352zm47.904 1.1211v6.9824c2.1543-0.99499 3.8457-2.1764 3.8457-3.4473 0-1.2709-1.6914-2.4908-3.8457-3.5352zm-47.904 2.8789h31.375c0.4986 0 0.90039 0.26902 0.90039 0.60352s-0.40179 0.60352-0.90039 0.60352h-31.375c-0.4986 0-0.90039-0.26902-0.90039-0.60352s0.40179-0.60352 0.90039-0.60352zm0 4h31.375c0.4986 0 0.90039 0.26902 0.90039 0.60352s-0.40179 0.60352-0.90039 0.60352h-31.375c-0.4986 0-0.90039-0.26902-0.90039-0.60352s0.40179-0.60352 0.90039-0.60352z" fill="#b3b3b3" fill-rule="evenodd"/>
								<g transform="translate(27.183 -1)" stroke-width="1.7046" aria-label="leetcode-bp">
												<g stroke-width="1.7046">
																<path d="m142.67 20.497c0 4.416-2.4 10.176-7.2 17.28-4.096 6.016-9.056 11.84-14.88 17.472-3.008 8-4.512 13.472-4.512 16.416 0 0.896 0.256 1.728 0.768 2.496 0.576 0.704 1.312 1.056 2.208 1.056 2.048 0 5.216-1.44 9.504-4.32s1.6958-2.176 5.8558-6.528l1.536 4.896c-2.816 2.752-0.83185 2.72-4.6078 5.28-5.12 3.52-9.152 5.28-12.096 5.28-2.624 0-4.736-0.832-6.336-2.496-1.28-1.408-1.92-2.848-1.92-4.32 0-2.88 0.8-6.688 2.4-11.424-1.472 1.408-3.616 3.52-6.432 6.336l-2.592-4.032 7.968-7.968c2.944-3.328 4.896-6.464 5.856-9.408 1.472-4.928 3.84-12.064 7.104-21.408 3.136-7.616 6.848-11.424 11.136-11.424 1.92 0 3.424 0.672 4.512 2.016 1.152 1.344 1.728 2.944 1.728 4.8zm-4.8 0.096c0-1.472-0.704-2.208-2.112-2.208-3.136 0-7.168 9.024-12.096 27.072 3.776-4.288 7.072-8.864 9.888-13.728 2.88-4.928 4.32-8.64 4.32-11.136z" style="font-feature-settings:normal;font-variant-caps:normal;font-variant-ligatures:normal;font-variant-numeric:normal"/>
																<path d="m161.97 69.265c-10.56 9.984-11.744 10.56-18.336 10.56-4.416 0-8-1.632-10.752-4.896-2.432-2.88-3.648-6.24-3.648-10.08 0-5.76 1.472-10.176 4.416-13.248 2.88-3.136 6.944-4.704 12.192-4.704 1.664 0 3.168 0.576 4.512 1.728 1.408 1.088 2.112 2.4 2.112 3.936 0 3.712-1.728 6.976-5.184 9.792-1.024 0.768-4.8 3.072-11.328 6.912 0.512 1.6 1.664 3.008 3.456 4.224 1.6 1.088 3.008 1.632 4.224 1.632 5.76 0 6.56-0.704 16.8-10.752zm-14.688-15.456c0-1.344-0.832-2.016-2.496-2.016-2.752 0-5.056 0.928-6.912 2.784-2.176 2.176-3.328 5.44-3.456 9.792 2.56-1.6 5.152-3.2 7.776-4.8 3.392-2.304 5.088-4.224 5.088-5.76z" style="font-feature-settings:normal;font-variant-caps:normal;font-variant-ligatures:normal;font-variant-numeric:normal"/>
																<path d="m187.92 67.921c-3.1571 2.9849-4.7696 5.3499-6.6377 7.0574-4.3803 4.0039-7.2127 4.747-11.834 4.747-4.416 0-8-1.632-10.752-4.896-2.432-2.88-3.4485-6.1405-3.4485-9.9805 0-5.76 1.472-10.176 4.416-13.248 2.88-3.136 6.944-4.704 12.192-4.704 1.664 0 3.168 0.576 4.512 1.728 1.408 1.088 2.112 2.4 2.112 3.936 0 3.712-1.728 6.976-5.184 9.792-1.024 0.768-4.8 3.072-11.328 6.912 0.512 1.6 1.664 3.008 3.456 4.224 1.6 1.088 2.8085 1.5325 4.0245 1.5325 3.8105 0 5.8605-0.31771 9.1669-3.5776 1.6916-1.6678 3.6219-3.9041 6.7126-7.5549zm-14.624-14.112c0-1.344-0.832-2.016-2.496-2.016-2.752 0-5.056 0.928-6.912 2.784-2.176 2.176-3.328 5.44-3.456 9.792 2.56-1.6 5.152-3.2 7.776-4.8 3.392-2.304 5.088-4.224 5.088-5.76z" style="font-feature-settings:normal;font-variant-caps:normal;font-variant-ligatures:normal;font-variant-numeric:normal"/>
																<path d="m223.82 66.577q-16.32 13.248-23.904 13.248-3.552 0-6.24-2.4-2.592-2.496-2.592-5.664t2.304-9.504q-1.728 1.92-5.472 5.664l-2.592-4.032q5.28-4.992 8.928-9.984 1.152-2.016 3.168-5.28h-11.808l1.152-4.704h12.96l9.696-28.992h5.376l-9.6 28.992h11.328l-1.632 4.704h-11.424q-1.632 4.608-5.184 14.592-2.112 6.048-2.112 8.16 0 1.248 1.44 2.496 1.44 1.152 2.496 1.152 3.264 0 10.944-4.992 7.2-4.704 12.768-9.984z" style="font-feature-settings:normal;font-variant-caps:normal;font-variant-ligatures:normal;font-variant-numeric:normal"/>
																<path d="m253.01 75.601c-6.0886 2.7974-12 4.224-17.76 4.224-3.968 0-7.296-0.96-9.984-2.88-3.008-2.24-4.512-5.312-4.512-9.216 0-5.76 1.856-10.688 5.568-14.784 3.776-4.096 8.192-6.144 13.248-6.144 1.984 0 3.808 0.8 5.472 2.4s2.784 3.808 3.36 6.624l-4.416 0.768c-0.32-1.408-0.96-2.592-1.92-3.552-0.896-1.024-1.856-1.536-2.88-1.536-3.84 0-7.136 1.696-9.888 5.088-2.56 3.136-3.84 6.752-3.84 10.848 0 2.112 1.056 3.936 3.168 5.472 2.176 1.472 4.576 2.208 7.2 2.208 4.864 0 10.15-1.3627 15.84-4.128 5.7665-2.8027 7.0955 1.9654 1.344 4.608z" style="font-feature-settings:normal;font-variant-caps:normal;font-variant-ligatures:normal;font-variant-numeric:normal"/>
																<path d="m280.27 72.529c-2.176 0-4.064-0.256-5.664-0.768-3.456 5.376-7.616 8.064-12.48 8.064-3.136 0-5.7141-1.1041-7.68-3.36-1.9382-2.2242-2.88-5.056-2.88-8.448 0-5.184 1.44-9.856 4.32-14.016 3.2-4.736 7.264-7.104 12.192-7.104 3.456 0 6.176 1.216 8.16 3.648 1.792 2.176 2.72 4.96 2.784 8.352 0.064 2.304-0.64 5.184-2.112 8.64 1.152 0.192 2.496 0.288 4.032 0.288 3.136 0 2.976 4.704-0.672 4.704zm-5.952-13.632c0-2.112-0.576-3.904-1.728-5.376-0.96-1.28-1.92-1.92-2.88-1.92-0.896 0-1.472 0.032-1.728 0.096-0.192 0.064-0.288 0.32-0.288 0.768 0 4.416 0.512 7.584 1.536 9.504 0.704 1.28 1.824 2.528 3.36 3.744 1.152-3.072 1.728-5.344 1.728-6.816zm-4.32 11.04c-2.304-1.28-4.032-3.264-5.184-5.952-1.152-2.752-1.728-5.344-1.728-7.776 0-0.96 0.096-2.016 0.288-3.168-1.664 1.28-3.2 3.232-4.608 5.856-1.6 3.008-2.432 5.952-2.496 8.832-0.064 2.048 0.48 3.808 1.632 5.28 1.216 1.472 2.752 2.208 4.608 2.208 2.624 0 5.12-1.76 7.488-5.28z" style="font-feature-settings:normal;font-variant-caps:normal;font-variant-ligatures:normal;font-variant-numeric:normal"/>
																<path d="m327.57 69.265c-2.56 2.112-0.76784 2.368-5.5678 6.144-3.968 2.944-7.296 4.416-9.984 4.416-2.752 0-4.704-0.448-5.856-1.344-1.088-0.96-1.92-2.656-2.496-5.088-3.776 4.288-7.552 6.432-11.328 6.432-3.264 0-5.952-1.024-8.064-3.072-2.048-2.048-3.072-4.576-3.072-7.584 0-6.08 3.104-11.36 9.312-15.84 5.76-4.16 12.512-6.624 20.256-7.392l10.464-32.16h5.184c-11.648 35.904-17.472 55.168-17.472 57.792 0 0.832 0.32 1.632 0.96 2.4 0.64 0.704 1.44 1.056 2.4 1.056 2.688 0 2.5918-0.672 13.728-10.656zm-18.528-18.048c-6.464 0.768-11.936 2.976-16.416 6.624-4.48 3.584-6.72 7.296-6.72 11.136 0 1.536 0.672 2.944 2.016 4.224s2.816 1.92 4.416 1.92c2.496 0 5.312-1.92 8.448-5.76 2.688-3.264 4.544-6.336 5.568-9.216 0.512-1.856 1.408-4.832 2.688-8.928z" style="font-feature-settings:normal;font-variant-caps:normal;font-variant-ligatures:normal;font-variant-numeric:normal"/>
																<path d="m349.45 75.212c-0.82875 0.75496-3.287 2.3825-6.4003 3.4159-2.5617 0.85031-5.6678 1.1974-7.8022 1.1974-4.416 0-8-1.632-10.752-4.896-2.432-2.88-3.648-6.24-3.648-10.08 0-5.76 1.472-10.176 4.416-13.248 2.88-3.136 6.944-4.704 12.192-4.704 1.664 0 3.168 0.576 4.512 1.728 1.408 1.088 2.112 2.4 2.112 3.936 0 3.712-1.728 6.976-5.184 9.792-1.024 0.768-4.8 3.072-11.328 6.912 0.512 1.6 1.664 3.008 3.456 4.224 1.6 1.088 3.008 1.632 4.224 1.632 1.8244 0 4.2388 0.0058 6.5774-0.40305 2.5438-0.44474 4.9864-1.3229 6.1852-1.7463zm-10.555-21.403c0-1.344-0.832-2.016-2.496-2.016-2.752 0-5.056 0.928-6.912 2.784-2.176 2.176-3.328 5.44-3.456 9.792 2.56-1.6 5.152-3.2 7.776-4.8 3.392-2.304 5.088-4.224 5.088-5.76z" style="font-feature-settings:normal;font-variant-caps:normal;font-variant-ligatures:normal;font-variant-numeric:normal"/>
												</g>
												<path d="m376.27 75.212c-1.8489 1.4933-2.8799 1.4933-4.7999 1.4933-1.3511 0-2.5778-0.67556-3.68-2.0267-0.56889-0.74667-1.3156-2.0267-2.24-3.84-0.53333 0.99556-1.6533 2.9689-3.36 5.92-2.0978 3.3778-4.4444 5.0667-7.04 5.0667-1.1733 0-2.1156-0.51556-2.8267-1.5467-0.64-0.92444-0.96-2.0089-0.96-3.2533 0-0.99556 0.35556-2.5778 1.0667-4.7467-0.49778 0.49778-1.4933 1.4756-2.9867 2.9333l-1.44-2.24c2.0622-2.0267 3.2533-3.2178 3.5733-3.5733 1.3156-1.4222 2.3644-2.7556 3.1467-4 0.71111-2.5244 1.44-5.0667 2.1867-7.6267s1.4578-4.64 2.1333-6.24c1.7067-4.1956 3.8933-6.2933 6.56-6.2933 1.0667 0 1.9022 0.35556 2.5067 1.0667 0.64 0.67556 0.96 1.5644 0.96 2.6667 0 2.88-1.1556 5.9022-3.4667 9.0667-1.28 1.7422-2.5422 3.3067-3.7867 4.6933-1.0311 1.0667-2.6133 2.7911-4.7467 5.1733-1.8844 3.8044-2.8267 6.9156-2.8267 9.3333 0 0.42667 0.16 0.87111 0.48 1.3333 0.32 0.42667 0.62222 0.64 0.90667 0.64 1.6711 0 3.6978-2.2578 6.08-6.7733 0.53333-1.0311 1.7778-3.6978 3.7333-8 0.0711-0.21333 0.16-0.42667 0.26667-0.64 0.0355 0.07111 0.10664 0.30222 0.21333 0.69333 2.1689 6.4 4.164 9.72 5.9733 9.6 1.402-0.09302 1.074 0.1001 2.9332-1.12zm-9.9199-26.027c0-0.88889-0.44445-1.3333-1.3333-1.3333-0.99555 0-2.2044 1.7244-3.6267 5.1733-1.3156 3.1289-2.2578 6.24-2.8267 9.3333 2.88-3.2711 4.5867-5.28 5.12-6.0267 1.7778-2.5244 2.6667-4.9067 2.6667-7.1467z"/>
												<path d="m403.63 74.465q-5.3333 4.6933-10.56 6.3467-3.7333 1.2267-9.3333 1.2267-2.88 0-4.8533-2.6133l-6.5067 19.893h-2.8267l8.2133-25.547-1.4933 1.44-1.44-2.24q2.2933-2.4533 2.72-2.9333 1.2267-1.44 2.2933-3.04 0.90667-1.3867 1.3867-3.4667h2.9867l-0.26667 1.2267q1.1733-0.85333 2.1867-1.0667 0.69333-0.16 2.5067-0.16 2.4 0 3.9467 2.08 1.5467 2.0267 1.5467 4.8 0 2.1333-0.85334 4.3733-1.0133 2.6133-2.6667 4 3.52-0.58667 7.3067-3.04 3.2533-2.1333 5.7067-4.9067zm-12.267-3.84q0-1.92-1.12-3.2-1.12-1.3333-2.6133-1.3333-2.1333 0-4.5867 3.2-2.4533 3.2-2.4533 6.08 0 1.5467 1.12 2.8267 1.12 1.2267 2.3467 1.2267 2.88 0 5.0667-2.7733 2.24-2.7733 2.24-6.0267z"/>
								</g>
				</g>
</svg>
